# Blender v2.81 (sub 16) OBJ File: 'predioL.blend'
# www.blender.org
mtllib predioL.mtl
o Plane
v -1.000000 0.400000 1.000000
v 1.000000 0.400000 1.000000
v -1.000000 0.400000 -1.000000
v 1.000000 0.400000 -1.000000
v -1.000000 0.000000 0.000000
v 1.000000 0.400000 0.000000
v 0.000000 0.400000 1.000000
v 0.000000 0.000000 -1.000000
v 0.000000 0.000000 0.000000
v 0.500000 0.400000 1.000000
v 0.500000 0.000000 -1.000000
v 0.500000 0.000000 0.000000
v 1.000000 0.400000 -0.500000
v -1.000000 0.000000 -0.500000
v 0.000000 0.000000 -0.500000
v 0.500000 0.000000 -0.500000
v -0.503863 0.000000 -1.000000
v -0.503863 0.000000 0.000000
v -0.503863 0.400000 1.000000
v -0.503863 0.000000 -0.500000
v -1.000000 0.000000 0.500000
v 1.000000 0.400000 0.500000
v 0.000000 0.000000 0.500000
v 0.500000 0.000000 0.500000
v -0.503863 0.000000 0.500000
v 0.754874 0.400000 1.000000
v 0.754874 0.400000 -1.000000
v 0.754874 0.400000 0.000000
v 0.754874 0.400000 -0.500000
v 0.754874 0.400000 0.500000
v -1.000000 0.400000 0.750000
v 1.000000 0.400000 0.750000
v 0.000000 0.400000 0.750000
v 0.500000 0.400000 0.750000
v -0.503863 0.400000 0.750000
v 0.754874 0.400000 0.750000
v 1.000000 0.400000 0.625000
v 0.000000 0.000000 0.625000
v 0.500000 0.000000 0.625000
v -0.503863 0.000000 0.625000
v 0.754874 0.400000 0.625000
v -1.000000 0.000000 0.625000
v 0.627437 0.000000 -1.000000
v 0.627437 0.000000 0.000000
v 0.627437 0.000000 -0.500000
v 0.627437 0.000000 0.500000
v 0.627437 0.400000 1.000000
v 0.627437 0.400000 0.750000
v 0.627437 0.000000 0.625000
v -0.751931 0.400000 -1.000000
v -0.751931 0.000000 0.000000
v -0.751931 0.000000 -0.500000
v -0.751931 0.400000 1.000000
v -0.751931 0.000000 0.500000
v -0.751931 0.400000 0.750000
v -0.751931 0.000000 0.625000
v -0.627897 0.400000 1.000000
v -0.627897 0.000000 -1.000000
v -0.627897 0.000000 0.000000
v -0.627897 0.000000 -0.500000
v -0.627897 0.000000 0.500000
v -0.627897 0.400000 0.750000
v -0.627897 0.000000 0.625000
v 1.000000 0.400000 -0.750000
v 0.000000 0.000000 -0.750000
v 0.500000 0.000000 -0.750000
v -1.000000 0.400000 -0.750000
v -0.503863 0.000000 -0.750000
v 0.754874 0.400000 -0.750000
v 0.627437 0.000000 -0.750000
v -0.751931 0.400000 -0.750000
v -0.627897 0.001174 -0.750000
v -1.000000 0.000000 -0.625000
v 1.000000 0.400000 -0.625000
v 0.000000 0.000000 -0.625000
v 0.500000 0.000000 -0.625000
v -0.503863 0.000000 -0.625000
v 0.754874 0.400000 -0.625000
v 0.627437 0.000000 -0.625000
v -0.751931 0.003528 -0.625000
v -0.627897 0.000000 -0.625000
vt 0.877437 0.875000
vt 1.000000 0.875000
vt 1.000000 1.000000
vt 0.877437 1.000000
vt 0.877437 0.250000
vt 1.000000 0.250000
vt 1.000000 0.500000
vt 0.877437 0.500000
vt 0.248069 0.250000
vt 0.500000 0.250000
vt 0.500000 0.500000
vt 0.248069 0.500000
vt 0.248069 0.875000
vt 0.500000 0.875000
vt 0.500000 1.000000
vt 0.248069 1.000000
vt 0.750000 0.250000
vt 0.750000 0.500000
vt 0.750000 0.875000
vt 0.750000 1.000000
vt 0.750000 0.750000
vt 0.500000 0.750000
vt 0.248069 0.750000
vt 1.000000 0.750000
vt 0.877437 0.750000
vt 0.186052 0.500000
vt 0.186052 0.750000
vt 0.186052 0.875000
vt 0.186052 1.000000
vt 0.186052 0.250000
vt 0.186052 0.187500
vt 0.248069 0.187500
vt 0.500000 0.187500
vt 0.750000 0.187500
vt 0.877437 0.187500
vt 1.000000 0.187500
vt 0.813718 0.187500
vt 0.813718 0.250000
vt 0.813718 0.500000
vt 0.813718 0.750000
vt 0.813718 0.875000
vt 0.813718 1.000000
vt 0.813718 0.000000
vt 0.877437 0.000000
vt 0.877437 0.125000
vt 0.813718 0.125000
vt 1.000000 0.000000
vt 1.000000 0.125000
vt 0.248069 0.000000
vt 0.500000 0.000000
vt 0.500000 0.125000
vt 0.248069 0.125000
vt 0.750000 0.000000
vt 0.750000 0.125000
vt 0.186052 0.000000
vt 0.186052 0.125000
vt 0.000000 0.125000
vt 0.124034 0.125000
vt 0.124034 0.187500
vt 0.000000 0.187500
vt 0.000000 0.000000
vt 0.124034 0.000000
vt 0.124034 0.250000
vt 0.000000 0.250000
vt 0.124034 0.500000
vt 0.000000 0.500000
vt 0.000000 0.875000
vt 0.124034 0.875000
vt 0.124034 1.000000
vt 0.000000 1.000000
vt 0.124034 0.750000
vt 0.000000 0.750000
vt 0.124034 0.812500
vt 0.186052 0.812500
vt 0.000000 0.812500
vt 0.750000 0.812500
vt 0.813718 0.812500
vt 0.877437 0.812500
vt 0.248069 0.812500
vt 0.500000 0.812500
vt 1.000000 0.812500
vn 0.0000 1.0000 0.0000
vn 0.0047 1.0000 -0.0023
vn -0.9528 0.3036 0.0000
vn -0.6395 0.4075 -0.6519
vn 0.0000 0.2983 -0.9545
vn 0.9550 0.2966 -0.0007
vn 0.6535 0.4029 0.6408
vn -0.0021 0.2995 0.9541
vn 0.0047 1.0000 0.0047
vn -0.0071 0.9999 0.0141
vn 0.0142 0.9998 0.0141
usemtl None
s off
f 69/1/1 64/2/1 4/3/1 27/4/1
f 30/5/1 22/6/1 6/7/1 28/8/1
f 25/9/1 23/10/1 9/11/1 18/12/1
f 68/13/1 65/14/1 8/15/1 17/16/1
f 23/10/1 24/17/1 12/18/1 9/11/1
f 65/14/1 66/19/1 11/20/1 8/15/1
f 9/11/1 12/18/1 16/21/1 15/22/1
f 18/12/1 9/11/1 15/22/1 20/23/1
f 28/8/1 6/7/1 13/24/1 29/25/1
f 59/26/1 18/12/1 20/23/1 60/27/1
f 72/28/2 68/13/2 17/16/2 58/29/2
f 61/30/1 25/9/1 18/12/1 59/26/1
f 63/31/1 40/32/1 25/9/1 61/30/1
f 38/33/1 39/34/1 24/17/1 23/10/1
f 40/32/1 38/33/1 23/10/1 25/9/1
f 41/35/1 37/36/1 22/6/1 30/5/1
f 49/37/3 41/35/3 30/5/3 46/38/3
f 44/39/3 28/8/3 29/25/3 45/40/3
f 46/38/3 30/5/3 28/8/3 44/39/3
f 70/41/3 69/1/3 27/4/3 43/42/3
f 47/43/1 26/44/1 36/45/1 48/46/1
f 26/44/1 2/47/1 32/48/1 36/45/1
f 19/49/1 7/50/1 33/51/1 35/52/1
f 7/50/1 10/53/1 34/54/1 33/51/1
f 57/55/1 19/49/1 35/52/1 62/56/1
f 48/46/4 36/45/4 41/35/4 49/37/4
f 36/45/1 32/48/1 37/36/1 41/35/1
f 35/52/5 33/51/5 38/33/5 40/32/5
f 33/51/5 34/54/5 39/34/5 38/33/5
f 62/56/5 35/52/5 40/32/5 63/31/5
f 34/54/5 48/46/5 49/37/5 39/34/5
f 10/53/1 47/43/1 48/46/1 34/54/1
f 66/19/1 70/41/1 43/42/1 11/20/1
f 24/17/1 46/38/1 44/39/1 12/18/1
f 12/18/1 44/39/1 45/40/1 16/21/1
f 39/34/1 49/37/1 46/38/1 24/17/1
f 31/57/5 55/58/5 56/59/5 42/60/5
f 1/61/1 53/62/1 55/58/1 31/57/1
f 42/60/1 56/59/1 54/63/1 21/64/1
f 21/64/1 54/63/1 51/65/1 5/66/1
f 67/67/1 71/68/1 50/69/1 3/70/1
f 5/66/1 51/65/1 52/71/1 14/72/1
f 55/58/5 62/56/5 63/31/5 56/59/5
f 53/62/1 57/55/1 62/56/1 55/58/1
f 56/59/1 63/31/1 61/30/1 54/63/1
f 54/63/1 61/30/1 59/26/1 51/65/1
f 71/68/6 72/28/6 58/29/6 50/69/6
f 51/65/1 59/26/1 60/27/1 52/71/1
f 80/73/7 81/74/7 72/28/7 71/68/7
f 73/75/8 80/73/8 71/68/8 67/67/8
f 76/76/1 79/77/1 70/41/1 66/19/1
f 79/77/3 78/78/3 69/1/3 70/41/3
f 81/74/9 77/79/9 68/13/9 72/28/9
f 75/80/1 76/76/1 66/19/1 65/14/1
f 77/79/1 75/80/1 65/14/1 68/13/1
f 78/78/1 74/81/1 64/2/1 69/1/1
f 29/25/1 13/24/1 74/81/1 78/78/1
f 20/23/1 15/22/1 75/80/1 77/79/1
f 15/22/1 16/21/1 76/76/1 75/80/1
f 60/27/1 20/23/1 77/79/1 81/74/1
f 45/40/3 29/25/3 78/78/3 79/77/3
f 16/21/1 45/40/1 79/77/1 76/76/1
f 14/72/10 52/71/10 80/73/10 73/75/10
f 52/71/11 60/27/11 81/74/11 80/73/11
