# Blender v2.81 (sub 16) OBJ File: 'predioI.blend'
# www.blender.org
mtllib predioI.mtl
o Plane
v -1.000000 0.400000 1.000000
v 1.000000 0.400000 1.000000
v -1.000000 0.400000 -1.000000
v 1.000000 0.400000 -1.000000
v 0.000000 0.000000 1.000000
v 0.000000 0.000000 -1.000000
v -1.000000 0.400000 0.000000
v 1.000000 0.400000 0.000000
v 0.000000 0.000000 0.000000
v 0.500000 0.000000 1.000000
v 0.500000 0.000000 -1.000000
v 0.500000 0.000000 0.000000
v -1.000000 0.400000 0.500000
v 1.000000 0.400000 0.500000
v 0.000000 0.000000 0.500000
v 0.500000 0.000000 0.500000
v 1.000000 0.400000 -0.500000
v 0.000000 0.000000 -0.500000
v -1.000000 0.400000 -0.500000
v 0.500000 0.000000 -0.500000
v -0.500000 0.000000 -1.000000
v -0.500000 0.000000 1.000000
v -0.500000 0.000000 0.000000
v -0.500000 0.000000 0.500000
v -0.500000 0.000000 -0.500000
v 1.000000 0.400000 -0.750000
v 0.000000 0.000000 -0.750000
v 0.500000 0.000000 -0.750000
v -1.000000 0.400000 -0.750000
v -0.500000 0.000000 -0.750000
v 0.750000 0.400000 1.000000
v 0.750000 0.400000 -1.000000
v 0.750000 0.400000 0.000000
v 0.750000 0.400000 0.500000
v 0.750000 0.400000 -0.500000
v 0.750000 0.400000 -0.750000
v -1.000000 0.400000 -0.625000
v 1.000000 0.400000 -0.625000
v 0.000000 0.000000 -0.625000
v 0.500000 0.000000 -0.625000
v -0.500000 0.000000 -0.625000
v 0.750000 0.400000 -0.625000
v 0.625000 0.000000 -1.000000
v 0.625000 0.007097 0.000000
v 0.625000 0.000014 0.500000
v 0.625000 0.000000 -0.500000
v 0.625000 0.000000 -0.750000
v 0.625000 0.000000 1.000000
v 0.625000 0.000000 -0.625000
v -1.000000 0.400000 0.750000
v 1.000000 0.400000 0.750000
v 0.000000 0.000000 0.750000
v 0.500000 0.000000 0.750000
v -0.500000 0.000000 0.750000
v 0.750000 0.400000 0.750000
v 0.625000 0.000329 0.750000
v -0.750000 0.400000 -1.000000
v -0.750000 0.400000 0.000000
v -0.750000 0.400000 0.500000
v -0.750000 0.400000 -0.500000
v -0.750000 0.400000 1.000000
v -0.750000 0.400000 -0.750000
v -0.750000 0.400000 -0.625000
v -0.750000 0.400000 0.750000
v -0.625000 0.000000 1.000000
v -0.625000 0.000000 -1.000000
v -0.625000 0.007097 0.000000
v -0.625000 0.000014 0.500000
v -0.625000 0.000000 -0.500000
v -0.625000 0.000000 -0.750000
v -0.625000 0.000000 -0.625000
v -0.625000 0.000329 0.750000
v 1.000000 0.400000 0.625000
v 0.000000 0.000000 0.625000
v 0.500000 0.000000 0.625000
v -0.500000 0.000000 0.625000
v 0.750000 0.400000 0.625000
v 0.625000 0.000299 0.625000
v -1.000000 0.400000 0.625000
v -0.750000 0.400000 0.625000
v -0.625000 0.000299 0.625000
v -0.250000 0.000000 1.000000
v -0.250000 0.000000 -1.000000
v -0.250000 0.000000 0.000000
v -0.250000 0.000000 0.500000
v -0.250000 0.000000 -0.500000
v -0.250000 0.000000 -0.750000
v -0.250000 0.000000 -0.625000
v -0.250000 0.000000 0.750000
v -0.250000 0.000000 0.625000
v 0.250000 0.000000 -1.000000
v 0.250000 0.000000 0.000000
v 0.250000 0.000000 1.000000
v 0.250000 0.000000 0.500000
v 0.250000 0.000000 -0.500000
v 0.250000 0.000000 -0.750000
v 0.250000 0.000000 -0.625000
v 0.250000 0.000000 0.750000
v 0.250000 0.000000 0.625000
v -1.000000 0.400000 -0.250000
v 1.000000 0.400000 -0.250000
v 0.000000 0.000000 -0.250000
v 0.500000 0.000000 -0.250000
v -0.500000 0.000000 -0.250000
v 0.750000 0.400000 -0.250000
v 0.625000 0.003143 -0.250000
v -0.750000 0.400000 -0.250000
v -0.625000 0.003143 -0.250000
v -0.250000 0.000000 -0.250000
v 0.250000 0.000000 -0.250000
v 1.000000 0.400000 0.250000
v 0.000000 0.000000 0.250000
v 0.500000 0.000000 0.250000
v -1.000000 0.400000 0.250000
v -0.500000 0.000000 0.250000
v 0.750000 0.400000 0.250000
v 0.625000 0.000238 0.250000
v -0.750000 0.400000 0.250000
v -0.625000 0.000238 0.250000
v -0.250000 0.000000 0.250000
v 0.250000 0.000000 0.250000
vt 0.875000 0.875000
vt 1.000000 0.875000
vt 1.000000 1.000000
vt 0.875000 1.000000
vt 0.375000 0.875000
vt 0.500000 0.875000
vt 0.500000 1.000000
vt 0.375000 1.000000
vt 0.375000 0.375000
vt 0.500000 0.375000
vt 0.500000 0.500000
vt 0.375000 0.500000
vt 0.875000 0.375000
vt 1.000000 0.375000
vt 1.000000 0.500000
vt 0.875000 0.500000
vt 0.625000 0.375000
vt 0.750000 0.375000
vt 0.750000 0.500000
vt 0.625000 0.500000
vt 0.625000 0.875000
vt 0.750000 0.875000
vt 0.750000 1.000000
vt 0.625000 1.000000
vt 0.625000 0.187500
vt 0.750000 0.187500
vt 0.750000 0.250000
vt 0.625000 0.250000
vt 0.875000 0.187500
vt 1.000000 0.187500
vt 1.000000 0.250000
vt 0.875000 0.250000
vt 0.375000 0.187500
vt 0.500000 0.187500
vt 0.500000 0.250000
vt 0.375000 0.250000
vt 0.625000 0.625000
vt 0.750000 0.625000
vt 0.750000 0.750000
vt 0.625000 0.750000
vt 0.375000 0.625000
vt 0.500000 0.625000
vt 0.500000 0.750000
vt 0.375000 0.750000
vt 0.875000 0.625000
vt 1.000000 0.625000
vt 1.000000 0.750000
vt 0.875000 0.750000
vt 0.187500 0.625000
vt 0.250000 0.625000
vt 0.250000 0.750000
vt 0.187500 0.750000
vt 0.187500 0.187500
vt 0.250000 0.187500
vt 0.250000 0.250000
vt 0.187500 0.250000
vt 0.187500 0.375000
vt 0.250000 0.375000
vt 0.250000 0.500000
vt 0.187500 0.500000
vt 0.187500 0.875000
vt 0.250000 0.875000
vt 0.250000 1.000000
vt 0.187500 1.000000
vt 0.187500 0.812500
vt 0.250000 0.812500
vt 0.625000 0.812500
vt 0.750000 0.812500
vt 0.375000 0.812500
vt 0.500000 0.812500
vt 0.875000 0.812500
vt 1.000000 0.812500
vt 0.812500 0.812500
vt 0.812500 0.875000
vt 0.812500 0.625000
vt 0.812500 0.750000
vt 0.812500 0.187500
vt 0.812500 0.250000
vt 0.812500 0.375000
vt 0.812500 0.500000
vt 0.812500 1.000000
vt 0.750000 0.000000
vt 0.812500 0.000000
vt 0.812500 0.125000
vt 0.750000 0.125000
vt 0.875000 0.000000
vt 0.875000 0.125000
vt 0.187500 0.000000
vt 0.250000 0.000000
vt 0.250000 0.125000
vt 0.187500 0.125000
vt 0.375000 0.000000
vt 0.500000 0.000000
vt 0.500000 0.125000
vt 0.375000 0.125000
vt 1.000000 0.000000
vt 1.000000 0.125000
vt 0.625000 0.000000
vt 0.625000 0.125000
vt 0.000000 0.000000
vt 0.125000 0.000000
vt 0.125000 0.125000
vt 0.000000 0.125000
vt 0.000000 0.750000
vt 0.125000 0.750000
vt 0.125000 0.812500
vt 0.000000 0.812500
vt 0.125000 0.875000
vt 0.000000 0.875000
vt 0.125000 1.000000
vt 0.000000 1.000000
vt 0.000000 0.375000
vt 0.125000 0.375000
vt 0.125000 0.500000
vt 0.000000 0.500000
vt 0.000000 0.187500
vt 0.125000 0.187500
vt 0.125000 0.250000
vt 0.000000 0.250000
vt 0.000000 0.625000
vt 0.125000 0.625000
vn 0.0000 1.0000 0.0000
vn 0.0126 0.9999 -0.0063
vn 0.0013 1.0000 -0.0011
vn 0.0293 0.9995 0.0137
vn -0.9545 0.2983 0.0000
vn -0.9541 0.2993 -0.0019
vn -0.9544 0.2984 -0.0003
vn -0.9537 0.3008 0.0041
vn -0.0293 0.9995 0.0137
vn -0.0013 1.0000 -0.0011
vn -0.0126 0.9999 -0.0063
vn -0.0013 1.0000 0.0007
vn -0.9544 0.2984 0.0002
vn 0.0013 1.0000 0.0007
vn 0.9544 0.2984 0.0002
vn 0.9545 0.2983 -0.0000
vn 0.9537 0.3008 0.0041
vn 0.9544 0.2984 -0.0003
vn 0.9541 0.2993 -0.0019
vn 0.9544 0.2985 -0.0000
vn -0.0025 1.0000 -0.0001
vn -0.9544 0.2985 -0.0000
vn 0.0025 1.0000 -0.0001
vn 0.9534 0.3018 -0.0024
vn -0.0409 0.9991 -0.0079
vn -0.9534 0.3018 -0.0024
vn 0.0409 0.9991 -0.0079
vn 0.9545 0.2984 0.0001
vn -0.0010 1.0000 0.0004
vn -0.9545 0.2984 0.0001
vn 0.0010 1.0000 0.0004
usemtl None
s off
f 36/1/1 26/2/1 4/3/1 32/4/1
f 87/5/1 27/6/1 6/7/1 83/8/1
f 120/9/1 112/10/1 9/11/1 84/12/1
f 116/13/1 111/14/1 8/15/1 33/16/1
f 121/17/1 113/18/1 12/19/1 92/20/1
f 96/21/1 28/22/1 11/23/1 91/24/1
f 99/25/1 75/26/1 16/27/1 94/28/1
f 77/29/1 73/30/1 14/31/1 34/32/1
f 90/33/1 74/34/1 15/35/1 85/36/1
f 110/37/1 103/38/1 20/39/1 95/40/1
f 109/41/1 102/42/1 18/43/1 86/44/1
f 105/45/1 101/46/1 17/47/1 35/48/1
f 108/49/2 104/50/2 25/51/2 69/52/2
f 81/53/3 76/54/3 24/55/3 68/56/3
f 119/57/4 115/58/4 23/59/4 67/60/4
f 70/61/1 30/62/1 21/63/1 66/64/1
f 71/65/1 41/66/1 30/62/1 70/61/1
f 97/67/1 40/68/1 28/22/1 96/21/1
f 88/69/1 39/70/1 27/6/1 87/5/1
f 42/71/1 38/72/1 26/2/1 36/1/1
f 49/73/5 42/71/5 36/1/5 47/74/5
f 106/75/6 105/45/6 35/48/6 46/76/6
f 78/77/7 77/29/7 34/32/7 45/78/7
f 117/79/8 116/13/8 33/16/8 44/80/8
f 47/74/5 36/1/5 32/4/5 43/81/5
f 46/76/5 35/48/5 42/71/5 49/73/5
f 35/48/1 17/47/1 38/72/1 42/71/1
f 86/44/1 18/43/1 39/70/1 88/69/1
f 95/40/1 20/39/1 40/68/1 97/67/1
f 69/52/1 25/51/1 41/66/1 71/65/1
f 20/39/1 46/76/1 49/73/1 40/68/1
f 28/22/1 47/74/1 43/81/1 11/23/1
f 113/18/9 117/79/9 44/80/9 12/19/9
f 75/26/10 78/77/10 45/78/10 16/27/10
f 103/38/11 106/75/11 46/76/11 20/39/11
f 40/68/1 49/73/1 47/74/1 28/22/1
f 10/82/12 48/83/12 56/84/12 53/85/12
f 48/83/13 31/86/13 55/87/13 56/84/13
f 65/88/14 22/89/14 54/90/14 72/91/14
f 82/92/1 5/93/1 52/94/1 89/95/1
f 31/86/1 2/96/1 51/97/1 55/87/1
f 93/98/1 10/82/1 53/85/1 98/99/1
f 1/100/1 61/101/1 64/102/1 50/103/1
f 19/104/1 60/105/1 63/106/1 37/107/1
f 37/107/1 63/106/1 62/108/1 29/109/1
f 29/109/1 62/108/1 57/110/1 3/111/1
f 114/112/1 118/113/1 58/114/1 7/115/1
f 79/116/1 80/117/1 59/118/1 13/119/1
f 100/120/1 107/121/1 60/105/1 19/104/1
f 61/101/15 65/88/15 72/91/15 64/102/15
f 60/105/16 69/52/16 71/65/16 63/106/16
f 63/106/16 71/65/16 70/61/16 62/108/16
f 62/108/16 70/61/16 66/64/16 57/110/16
f 118/113/17 119/57/17 67/60/17 58/114/17
f 80/117/18 81/53/18 68/56/18 59/118/18
f 107/121/19 108/49/19 69/52/19 60/105/19
f 64/102/20 72/91/20 81/53/20 80/117/20
f 50/103/1 64/102/1 80/117/1 79/116/1
f 53/85/21 56/84/21 78/77/21 75/26/21
f 56/84/22 55/87/22 77/29/22 78/77/22
f 72/91/23 54/90/23 76/54/23 81/53/23
f 89/95/1 52/94/1 74/34/1 90/33/1
f 55/87/1 51/97/1 73/30/1 77/29/1
f 98/99/1 53/85/1 75/26/1 99/25/1
f 54/90/1 89/95/1 90/33/1 76/54/1
f 22/89/1 82/92/1 89/95/1 54/90/1
f 25/51/1 86/44/1 88/69/1 41/66/1
f 41/66/1 88/69/1 87/5/1 30/62/1
f 104/50/1 109/41/1 86/44/1 25/51/1
f 76/54/1 90/33/1 85/36/1 24/55/1
f 115/58/1 120/9/1 84/12/1 23/59/1
f 30/62/1 87/5/1 83/8/1 21/63/1
f 52/94/1 98/99/1 99/25/1 74/34/1
f 5/93/1 93/98/1 98/99/1 52/94/1
f 18/43/1 95/40/1 97/67/1 39/70/1
f 39/70/1 97/67/1 96/21/1 27/6/1
f 102/42/1 110/37/1 95/40/1 18/43/1
f 74/34/1 99/25/1 94/28/1 15/35/1
f 27/6/1 96/21/1 91/24/1 6/7/1
f 112/10/1 121/17/1 92/20/1 9/11/1
f 9/11/1 92/20/1 110/37/1 102/42/1
f 23/59/1 84/12/1 109/41/1 104/50/1
f 58/114/24 67/60/24 108/49/24 107/121/24
f 7/115/1 58/114/1 107/121/1 100/120/1
f 12/19/25 44/80/25 106/75/25 103/38/25
f 44/80/26 33/16/26 105/45/26 106/75/26
f 67/60/27 23/59/27 104/50/27 108/49/27
f 33/16/1 8/15/1 101/46/1 105/45/1
f 84/12/1 9/11/1 102/42/1 109/41/1
f 92/20/1 12/19/1 103/38/1 110/37/1
f 15/35/1 94/28/1 121/17/1 112/10/1
f 24/55/1 85/36/1 120/9/1 115/58/1
f 59/118/28 68/56/28 119/57/28 118/113/28
f 13/119/1 59/118/1 118/113/1 114/112/1
f 16/27/29 45/78/29 117/79/29 113/18/29
f 45/78/30 34/32/30 116/13/30 117/79/30
f 68/56/31 24/55/31 115/58/31 119/57/31
f 94/28/1 16/27/1 113/18/1 121/17/1
f 34/32/1 14/31/1 111/14/1 116/13/1
f 85/36/1 15/35/1 112/10/1 120/9/1
